<?xml version="1.0" encoding="UTF-8"?>
<svg width="700pt" height="700pt" version="1.1" viewBox="0 0 700 700" xmlns="http://www.w3.org/2000/svg" xmlns:xlink="http://www.w3.org/1999/xlink">
 <defs>
  <symbol id="v" overflow="visible">
   <path d="m4.7188-0.28125c-0.24219 0.125-0.49609 0.21875-0.76562 0.28125-0.26172 0.0625-0.53125 0.09375-0.8125 0.09375-0.86719 0-1.5469-0.23438-2.0469-0.70312-0.5-0.47656-0.75-1.1289-0.75-1.9531 0-0.82031 0.25-1.4727 0.75-1.9531 0.5-0.47656 1.1797-0.71875 2.0469-0.71875 0.28125 0 0.55078 0.039063 0.8125 0.10938 0.26953 0.0625 0.52344 0.15625 0.76562 0.28125v1.0625c-0.24219-0.16406-0.48047-0.28516-0.71875-0.35938-0.24219-0.082031-0.49609-0.125-0.76562-0.125-0.46875 0-0.83984 0.15234-1.1094 0.45312-0.27344 0.30469-0.40625 0.71875-0.40625 1.25s0.13281 0.94922 0.40625 1.25c0.26953 0.30469 0.64062 0.45312 1.1094 0.45312 0.26953 0 0.52344-0.035156 0.76562-0.10938 0.23828-0.082031 0.47656-0.20703 0.71875-0.375z"/>
  </symbol>
  <symbol id="c" overflow="visible">
   <path d="m3.4531-2.7969c-0.10547-0.050781-0.21484-0.085937-0.32812-0.10938-0.10547-0.03125-0.21094-0.046875-0.3125-0.046875-0.3125 0-0.55859 0.10547-0.73438 0.3125-0.16797 0.19922-0.25 0.48438-0.25 0.85938v1.7812h-1.2344v-3.8594h1.2344v0.64062c0.15625-0.25 0.33203-0.42969 0.53125-0.54688 0.20703-0.125 0.45703-0.1875 0.75-0.1875 0.039063 0 0.082031 0.007813 0.125 0.015625 0.050781 0 0.125 0.007812 0.21875 0.015625z"/>
  </symbol>
  <symbol id="b" overflow="visible">
   <path d="m4.4375-1.9375v0.34375h-2.875c0.03125 0.29297 0.13281 0.51172 0.3125 0.65625 0.17578 0.14844 0.42578 0.21875 0.75 0.21875 0.25781 0 0.52344-0.035156 0.79688-0.10938 0.26953-0.082031 0.54688-0.20312 0.82812-0.35938v0.95312c-0.29297 0.11719-0.58594 0.19922-0.875 0.25-0.28125 0.050781-0.57031 0.078125-0.85938 0.078125-0.69922 0-1.2461-0.17578-1.6406-0.53125-0.38672-0.35156-0.57812-0.84766-0.57812-1.4844 0-0.625 0.1875-1.1172 0.5625-1.4844 0.38281-0.36328 0.91016-0.54688 1.5781-0.54688 0.60156 0 1.0859 0.18359 1.4531 0.54688 0.36328 0.36719 0.54688 0.85547 0.54688 1.4688zm-1.2656-0.40625c0-0.23828-0.070313-0.42578-0.20312-0.5625-0.13672-0.14453-0.3125-0.21875-0.53125-0.21875-0.24219 0-0.4375 0.070312-0.59375 0.20312-0.14844 0.13672-0.23438 0.32812-0.26562 0.57812z"/>
  </symbol>
  <symbol id="d" overflow="visible">
   <path d="m2.3125-1.7344c-0.25 0-0.44531 0.046875-0.57812 0.14062-0.125 0.085938-0.1875 0.21094-0.1875 0.375 0 0.15625 0.050781 0.28125 0.15625 0.375 0.10156 0.085938 0.25 0.125 0.4375 0.125 0.22656 0 0.42188-0.082031 0.57812-0.25 0.15625-0.16406 0.23438-0.375 0.23438-0.625v-0.14062zm1.8906-0.46875v2.2031h-1.25v-0.57812c-0.15625 0.24219-0.33984 0.41406-0.54688 0.51562-0.21094 0.10156-0.46484 0.15625-0.76562 0.15625-0.39844 0-0.71875-0.11328-0.96875-0.34375-0.25-0.22656-0.375-0.53125-0.375-0.90625 0-0.44531 0.15625-0.77344 0.46875-0.98438 0.3125-0.21875 0.80078-0.32812 1.4688-0.32812h0.71875v-0.09375c0-0.19531-0.078125-0.33594-0.23438-0.42188-0.14844-0.09375-0.38281-0.14062-0.70312-0.14062-0.27344 0-0.52344 0.027344-0.75 0.078125-0.21875 0.054687-0.42969 0.13281-0.625 0.23438v-0.9375c0.25781-0.0625 0.51953-0.10938 0.78125-0.14062 0.26953-0.039063 0.53906-0.0625 0.8125-0.0625 0.69531 0 1.1953 0.14062 1.5 0.42188 0.3125 0.27344 0.46875 0.71484 0.46875 1.3281z"/>
  </symbol>
  <symbol id="a" overflow="visible">
   <path d="m1.9375-4.9531v1.0938h1.2656v0.89062h-1.2656v1.625c0 0.1875 0.035156 0.3125 0.10938 0.375 0.070313 0.0625 0.21094 0.09375 0.42188 0.09375h0.625v0.875h-1.0469c-0.49219 0-0.83984-0.097656-1.0469-0.29688-0.19922-0.20703-0.29688-0.55469-0.29688-1.0469v-1.625h-0.60938v-0.89062h0.60938v-1.0938z"/>
  </symbol>
  <symbol id="m" overflow="visible">
   <path d="m3.2188-3.2969v-2.0625h1.2344v5.3594h-1.2344v-0.5625c-0.17969 0.23047-0.37109 0.39844-0.57812 0.5-0.19922 0.10156-0.43359 0.15625-0.70312 0.15625-0.46875 0-0.85938-0.1875-1.1719-0.5625-0.30469-0.375-0.45312-0.85938-0.45312-1.4531s0.14844-1.0781 0.45312-1.4531c0.3125-0.38281 0.70312-0.57812 1.1719-0.57812 0.26953 0 0.50391 0.058594 0.70312 0.17188 0.20703 0.10547 0.39844 0.26562 0.57812 0.48438zm-0.8125 2.5c0.25781 0 0.45703-0.09375 0.59375-0.28125 0.14453-0.19531 0.21875-0.47656 0.21875-0.84375 0-0.36328-0.074219-0.64062-0.21875-0.82812-0.13672-0.19531-0.33594-0.29688-0.59375-0.29688-0.26172 0-0.46484 0.10156-0.60938 0.29688-0.13672 0.1875-0.20312 0.46484-0.20312 0.82812 0 0.36719 0.066406 0.64844 0.20312 0.84375 0.14453 0.1875 0.34766 0.28125 0.60938 0.28125z"/>
  </symbol>
  <symbol id="l" overflow="visible">
   <path d="m2.6406-0.79688c0.25781 0 0.45703-0.09375 0.59375-0.28125 0.14453-0.19531 0.21875-0.47656 0.21875-0.84375 0-0.36328-0.074219-0.64062-0.21875-0.82812-0.13672-0.19531-0.33594-0.29688-0.59375-0.29688-0.26172 0-0.46484 0.10156-0.60938 0.29688-0.13672 0.1875-0.20312 0.46484-0.20312 0.82812 0 0.36719 0.066406 0.64844 0.20312 0.84375 0.14453 0.1875 0.34766 0.28125 0.60938 0.28125zm-0.8125-2.5c0.16406-0.21875 0.35156-0.37891 0.5625-0.48438 0.20703-0.11328 0.44141-0.17188 0.70312-0.17188 0.47656 0 0.86719 0.19531 1.1719 0.57812 0.3125 0.375 0.46875 0.85938 0.46875 1.4531s-0.15625 1.0781-0.46875 1.4531c-0.30469 0.375-0.69531 0.5625-1.1719 0.5625-0.26172 0-0.49609-0.054688-0.70312-0.15625-0.21094-0.10156-0.39844-0.26953-0.5625-0.5v0.5625h-1.2344v-5.3594h1.2344z"/>
  </symbol>
  <symbol id="k" overflow="visible">
   <path d="m0.09375-3.8594h1.2188l1.0469 2.625 0.875-2.625h1.2344l-1.625 4.2188c-0.16797 0.4375-0.35938 0.73828-0.57812 0.90625-0.21094 0.16406-0.49219 0.25-0.84375 0.25h-0.71875v-0.79688h0.39062c0.20703 0 0.35938-0.039062 0.45312-0.10938 0.09375-0.0625 0.16406-0.18359 0.21875-0.35938l0.03125-0.10938z"/>
  </symbol>
  <symbol id="f" overflow="visible">
   <path d="m0.64062-5.1406h2.2031c0.65625 0 1.1562 0.14844 1.5 0.4375 0.35156 0.29297 0.53125 0.70312 0.53125 1.2344 0 0.54297-0.17969 0.96094-0.53125 1.25-0.34375 0.29297-0.84375 0.4375-1.5 0.4375h-0.875v1.7812h-1.3281zm1.3281 0.96875v1.4219h0.73438c0.25781 0 0.45703-0.0625 0.59375-0.1875 0.14453-0.125 0.21875-0.30078 0.21875-0.53125 0-0.22656-0.074219-0.39844-0.21875-0.51562-0.13672-0.125-0.33594-0.1875-0.59375-0.1875z"/>
  </symbol>
  <symbol id="j" overflow="visible">
   <path d="m0.59375-3.8594h1.2344v3.8594h-1.2344zm0-1.5h1.2344v1.0156h-1.2344z"/>
  </symbol>
  <symbol id="i" overflow="visible">
   <path d="m3.7031-3.7344v1c-0.16797-0.11328-0.33594-0.19531-0.5-0.25-0.16797-0.050781-0.34375-0.078125-0.53125-0.078125-0.34375 0-0.60938 0.10156-0.79688 0.29688-0.1875 0.19922-0.28125 0.48047-0.28125 0.84375 0 0.35547 0.09375 0.63672 0.28125 0.84375 0.1875 0.19922 0.45312 0.29688 0.79688 0.29688 0.19531 0 0.37891-0.023438 0.54688-0.078125 0.17578-0.0625 0.33594-0.14844 0.48438-0.26562v1.0156c-0.1875 0.074219-0.38281 0.125-0.57812 0.15625-0.19922 0.03125-0.40234 0.046875-0.60938 0.046875-0.6875 0-1.2305-0.17578-1.625-0.53125-0.39844-0.35156-0.59375-0.84766-0.59375-1.4844 0-0.63281 0.19531-1.1289 0.59375-1.4844 0.39453-0.36328 0.9375-0.54688 1.625-0.54688 0.20703 0 0.40625 0.023437 0.59375 0.0625 0.19531 0.03125 0.39453 0.085937 0.59375 0.15625z"/>
  </symbol>
  <symbol id="u" overflow="visible">
   <path d="m0.59375-5.3594h1.2344v2.9219l1.4062-1.4219h1.4375l-1.875 1.7812 2.0312 2.0781h-1.5l-1.5-1.6094v1.6094h-1.2344z"/>
  </symbol>
  <symbol id="t" overflow="visible">
   <path d="m0.64062-5.1406h1.6875l1.1719 2.75 1.1719-2.75h1.6875v5.1406h-1.25v-3.75l-1.1875 2.7656h-0.82812l-1.1875-2.7656v3.75h-1.2656z"/>
  </symbol>
  <symbol id="h" overflow="visible">
   <path d="m0.54688-1.5v-2.3594h1.25v0.39062c0 0.21094-0.007813 0.47656-0.015625 0.79688v0.625c0 0.30469 0.003906 0.52734 0.015625 0.67188 0.019531 0.13672 0.050781 0.23438 0.09375 0.29688 0.050781 0.074219 0.11328 0.13672 0.1875 0.1875 0.082031 0.042969 0.17969 0.0625 0.29688 0.0625 0.25 0 0.44531-0.097656 0.59375-0.29688 0.14453-0.19531 0.21875-0.47266 0.21875-0.82812v-1.9062h1.2344v3.8594h-1.2344v-0.5625c-0.17969 0.23047-0.37109 0.39844-0.57812 0.5-0.21094 0.10156-0.4375 0.15625-0.6875 0.15625-0.44922 0-0.79297-0.13281-1.0312-0.40625-0.23047-0.26953-0.34375-0.66406-0.34375-1.1875z"/>
  </symbol>
  <symbol id="s" overflow="visible">
   <path d="m0.59375-5.3594h1.2344v5.3594h-1.2344z"/>
  </symbol>
  <symbol id="g" overflow="visible">
   <path d="m4.4688-2.3438v2.3438h-1.2344v-1.7969c0-0.33203-0.011719-0.5625-0.03125-0.6875-0.011719-0.125-0.039063-0.21875-0.078125-0.28125-0.042969-0.082031-0.10547-0.14453-0.1875-0.1875-0.085938-0.039063-0.17969-0.0625-0.28125-0.0625-0.26172 0-0.46484 0.10156-0.60938 0.29688-0.14844 0.19922-0.21875 0.47656-0.21875 0.82812v1.8906h-1.2344v-3.8594h1.2344v0.5625c0.1875-0.21875 0.38281-0.37891 0.59375-0.48438 0.20703-0.11328 0.4375-0.17188 0.6875-0.17188 0.44531 0 0.78516 0.14062 1.0156 0.42188 0.22656 0.27344 0.34375 0.66797 0.34375 1.1875z"/>
  </symbol>
  <symbol id="r" overflow="visible">
   <path d="m3.125-5.3594v0.8125h-0.67188c-0.17969 0-0.30469 0.03125-0.375 0.09375-0.0625 0.0625-0.09375 0.17188-0.09375 0.32812v0.26562h1.0469v0.89062h-1.0469v2.9688h-1.2344v-2.9688h-0.60938v-0.89062h0.60938v-0.26562c0-0.41406 0.11328-0.72266 0.34375-0.92188 0.23828-0.20703 0.60156-0.3125 1.0938-0.3125z"/>
  </symbol>
  <symbol id="e" overflow="visible">
   <path d="m2.4219-3.0625c-0.27344 0-0.48047 0.10156-0.625 0.29688-0.13672 0.1875-0.20312 0.46875-0.20312 0.84375 0 0.36719 0.066406 0.64844 0.20312 0.84375 0.14453 0.19922 0.35156 0.29688 0.625 0.29688 0.26953 0 0.47266-0.097656 0.60938-0.29688 0.14453-0.19531 0.21875-0.47656 0.21875-0.84375 0-0.375-0.074219-0.65625-0.21875-0.84375-0.13672-0.19531-0.33984-0.29688-0.60938-0.29688zm0-0.89062c0.66406 0 1.1797 0.18359 1.5469 0.54688 0.375 0.35547 0.5625 0.85156 0.5625 1.4844 0 0.63672-0.1875 1.1328-0.5625 1.4844-0.36719 0.35547-0.88281 0.53125-1.5469 0.53125-0.66797 0-1.1875-0.17578-1.5625-0.53125-0.375-0.35156-0.5625-0.84766-0.5625-1.4844 0-0.63281 0.1875-1.1289 0.5625-1.4844 0.375-0.36328 0.89453-0.54688 1.5625-0.54688z"/>
  </symbol>
  <symbol id="q" overflow="visible">
   <path d="m4.1562-3.2188c0.15625-0.23828 0.34375-0.42188 0.5625-0.54688s0.45312-0.1875 0.70312-0.1875c0.44531 0 0.78516 0.14062 1.0156 0.42188 0.22656 0.27344 0.34375 0.66797 0.34375 1.1875v2.3438h-1.2344v-2.0156-0.078125-0.14062c0-0.28125-0.042969-0.47656-0.125-0.59375-0.074219-0.125-0.19922-0.1875-0.375-0.1875-0.24219 0-0.42188 0.10156-0.54688 0.29688-0.125 0.1875-0.19531 0.46484-0.20312 0.82812v1.8906h-1.2344v-2.0156c0-0.42578-0.039062-0.69531-0.10938-0.8125-0.074219-0.125-0.20312-0.1875-0.39062-0.1875-0.24219 0-0.42188 0.10156-0.54688 0.29688-0.125 0.1875-0.1875 0.46484-0.1875 0.82812v1.8906h-1.25v-3.8594h1.25v0.5625c0.14453-0.20703 0.31641-0.36719 0.51562-0.48438 0.19531-0.11328 0.41406-0.17188 0.65625-0.17188 0.25781 0 0.48828 0.070313 0.6875 0.20312 0.20703 0.125 0.36328 0.30469 0.46875 0.53125z"/>
  </symbol>
  <symbol id="p" overflow="visible">
   <path d="m4.4688-2.3438v2.3438h-1.2344v-1.7969c0-0.33203-0.011719-0.5625-0.03125-0.6875-0.011719-0.125-0.039063-0.21875-0.078125-0.28125-0.042969-0.082031-0.10547-0.14453-0.1875-0.1875-0.085938-0.039063-0.17969-0.0625-0.28125-0.0625-0.26172 0-0.46484 0.10156-0.60938 0.29688-0.14844 0.19922-0.21875 0.47656-0.21875 0.82812v1.8906h-1.2344v-5.3594h1.2344v2.0625c0.1875-0.21875 0.38281-0.37891 0.59375-0.48438 0.20703-0.11328 0.4375-0.17188 0.6875-0.17188 0.44531 0 0.78516 0.14062 1.0156 0.42188 0.22656 0.27344 0.34375 0.66797 0.34375 1.1875z"/>
  </symbol>
  <symbol id="o" overflow="visible">
   <path d="m0.64062-5.1406h1.4844l1.875 3.5312v-3.5312h1.25v5.1406h-1.4844l-1.8594-3.5312v3.5312h-1.2656z"/>
  </symbol>
  <symbol id="n" overflow="visible">
   <path d="m0.59375-3.8594h1.2344v3.7969c0 0.50781-0.125 0.89844-0.375 1.1719-0.25 0.26953-0.60938 0.40625-1.0781 0.40625h-0.60938v-0.79688h0.21875c0.22656 0 0.38281-0.058594 0.46875-0.17188 0.09375-0.10547 0.14062-0.30859 0.14062-0.60938zm0-1.5h1.2344v1.0156h-1.2344z"/>
  </symbol>
 </defs>
 <g>
  <path d="m287.85 174.82h195.7v20.602h-195.7z"/>
  <path d="m219.42 364.45h195.7v20.602h-195.7z"/>
  <path d="m189.93 269.63h320v20.602h-320z"/>
  <use x="70" y="581.164062" xlink:href="#v"/>
  <use x="75.175781" y="581.164062" xlink:href="#c"/>
  <use x="78.65625" y="581.164062" xlink:href="#b"/>
  <use x="83.441406" y="581.164062" xlink:href="#d"/>
  <use x="88.203125" y="581.164062" xlink:href="#a"/>
  <use x="91.574219" y="581.164062" xlink:href="#b"/>
  <use x="96.359375" y="581.164062" xlink:href="#m"/>
  <use x="103.863281" y="581.164062" xlink:href="#l"/>
  <use x="108.914062" y="581.164062" xlink:href="#k"/>
  <use x="115.96875" y="581.164062" xlink:href="#f"/>
  <use x="121.140625" y="581.164062" xlink:href="#d"/>
  <use x="125.898438" y="581.164062" xlink:href="#a"/>
  <use x="129.273438" y="581.164062" xlink:href="#c"/>
  <use x="132.75" y="581.164062" xlink:href="#j"/>
  <use x="135.167969" y="581.164062" xlink:href="#i"/>
  <use x="139.351562" y="581.164062" xlink:href="#u"/>
  <use x="146.5" y="581.164062" xlink:href="#t"/>
  <use x="153.519531" y="581.164062" xlink:href="#h"/>
  <use x="158.542969" y="581.164062" xlink:href="#s"/>
  <use x="160.960938" y="581.164062" xlink:href="#a"/>
  <use x="164.332031" y="581.164062" xlink:href="#d"/>
  <use x="169.09375" y="581.164062" xlink:href="#g"/>
  <use x="174.113281" y="581.164062" xlink:href="#j"/>
  <use x="70" y="588.21875" xlink:href="#r"/>
  <use x="73.070312" y="588.21875" xlink:href="#c"/>
  <use x="76.546875" y="588.21875" xlink:href="#e"/>
  <use x="81.394531" y="588.21875" xlink:href="#q"/>
  <use x="91.203125" y="588.21875" xlink:href="#a"/>
  <use x="94.574219" y="588.21875" xlink:href="#p"/>
  <use x="99.597656" y="588.21875" xlink:href="#b"/>
  <use x="106.835938" y="588.21875" xlink:href="#o"/>
  <use x="112.742188" y="588.21875" xlink:href="#e"/>
  <use x="117.589844" y="588.21875" xlink:href="#h"/>
  <use x="122.609375" y="588.21875" xlink:href="#g"/>
  <use x="130.089844" y="588.21875" xlink:href="#f"/>
  <use x="135.257812" y="588.21875" xlink:href="#c"/>
  <use x="138.738281" y="588.21875" xlink:href="#e"/>
  <use x="143.585938" y="588.21875" xlink:href="#n"/>
  <use x="146.003906" y="588.21875" xlink:href="#b"/>
  <use x="150.789062" y="588.21875" xlink:href="#i"/>
  <use x="154.96875" y="588.21875" xlink:href="#a"/>
 </g>
</svg>
